<svg width="892" height="217" viewBox="0 0 892 217" fill="none" xmlns="http://www.w3.org/2000/svg">
<path d="M282.6 174L281.2 155.4V34H307.6V174H282.6ZM251.2 176.4C242 176.4 234 174.267 227.2 170C220.533 165.733 215.333 159.667 211.6 151.8C207.867 143.933 206 134.667 206 124C206 113.2 207.867 103.933 211.6 96.2C215.333 88.3333 220.533 82.2667 227.2 78C234 73.7333 242 71.6 251.2 71.6C259.6 71.6 266.667 73.7333 272.4 78C278.267 82.2667 282.733 88.3333 285.8 96.2C288.867 103.933 290.4 113.2 290.4 124C290.4 134.667 288.867 143.933 285.8 151.8C282.733 159.667 278.267 165.733 272.4 170C266.667 174.267 259.6 176.4 251.2 176.4ZM258 152.2C262.533 152.2 266.533 151 270 148.6C273.6 146.2 276.4 142.867 278.4 138.6C280.4 134.333 281.4 129.467 281.4 124C281.4 118.533 280.4 113.667 278.4 109.4C276.4 105.133 273.6 101.867 270 99.6C266.533 97.2 262.467 96 257.8 96C253 96 248.8 97.2 245.2 99.6C241.6 101.867 238.733 105.133 236.6 109.4C234.467 113.667 233.4 118.533 233.4 124C233.4 129.467 234.467 134.333 236.6 138.6C238.733 142.867 241.6 146.2 245.2 148.6C248.933 151 253.2 152.2 258 152.2ZM367.545 176.4C357.679 176.4 348.945 174.2 341.345 169.8C333.745 165.267 327.745 159.067 323.345 151.2C319.079 143.333 316.945 134.267 316.945 124C316.945 113.733 319.145 104.667 323.545 96.8C328.079 88.9333 334.212 82.8 341.945 78.4C349.812 73.8667 358.812 71.6 368.945 71.6C377.745 71.6 385.812 73.9333 393.145 78.6C400.612 83.1333 406.545 89.8667 410.945 98.8C415.479 107.6 417.745 118.333 417.745 131H341.945L344.345 128.6C344.345 133.533 345.545 137.867 347.945 141.6C350.479 145.2 353.679 148 357.545 150C361.545 151.867 365.812 152.8 370.345 152.8C375.812 152.8 380.279 151.667 383.745 149.4C387.212 147 389.879 143.933 391.745 140.2L415.345 149.4C412.545 155 408.879 159.867 404.345 164C399.945 168 394.679 171.067 388.545 173.2C382.412 175.333 375.412 176.4 367.545 176.4ZM345.745 113.8L343.345 111.4H391.545L389.345 113.8C389.345 109 388.212 105.2 385.945 102.4C383.679 99.4667 380.879 97.3333 377.545 96C374.345 94.6667 371.212 94 368.145 94C365.079 94 361.812 94.6667 358.345 96C354.879 97.3333 351.879 99.4667 349.345 102.4C346.945 105.2 345.745 109 345.745 113.8ZM425.088 174V34H451.488V174H425.088ZM467.906 174V74H494.306V174H467.906ZM481.106 57.8C477.106 57.8 473.573 56.3333 470.506 53.4C467.44 50.3333 465.906 46.7333 465.906 42.6C465.906 38.4667 467.44 34.9333 470.506 32C473.573 28.9333 477.106 27.4 481.106 27.4C485.24 27.4 488.773 28.9333 491.706 32C494.773 34.9333 496.306 38.4667 496.306 42.6C496.306 46.7333 494.773 50.3333 491.706 53.4C488.773 56.3333 485.24 57.8 481.106 57.8ZM555.65 216.6C548.05 216.6 541.317 216.067 535.45 215C529.583 213.933 524.65 212.533 520.65 210.8C516.65 209.067 513.383 207.333 510.85 205.6L521.25 184.4C523.117 185.467 525.583 186.667 528.65 188C531.717 189.467 535.383 190.667 539.65 191.6C543.917 192.667 548.85 193.2 554.45 193.2C559.783 193.2 564.45 192.133 568.45 190C572.583 188 575.783 184.8 578.05 180.4C580.45 176.133 581.65 170.667 581.65 164V74H608.05V163.2C608.05 174.4 605.917 184 601.65 192C597.383 200.133 591.317 206.267 583.45 210.4C575.717 214.533 566.45 216.6 555.65 216.6ZM550.45 171.2C541.25 171.2 533.25 169.2 526.45 165.2C519.783 161.2 514.583 155.6 510.85 148.4C507.117 141.2 505.25 132.667 505.25 122.8C505.25 112.4 507.117 103.4 510.85 95.8C514.583 88.0667 519.783 82.1333 526.45 78C533.25 73.7333 541.25 71.6 550.45 71.6C558.45 71.6 565.383 73.7333 571.25 78C577.117 82.1333 581.65 88.0667 584.85 95.8C588.05 103.533 589.65 112.733 589.65 123.4C589.65 133 588.05 141.4 584.85 148.6C581.65 155.8 577.117 161.4 571.25 165.4C565.383 169.267 558.45 171.2 550.45 171.2ZM558.05 149C562.583 149 566.517 147.867 569.85 145.6C573.317 143.2 575.983 140 577.85 136C579.717 131.867 580.65 127.2 580.65 122C580.65 116.667 579.65 112 577.65 108C575.783 104 573.117 100.867 569.65 98.6C566.317 96.3333 562.383 95.2 557.85 95.2C553.183 95.2 549.05 96.3333 545.45 98.6C541.85 100.867 539.05 104 537.05 108C535.05 112 533.983 116.667 533.85 122C533.983 127.2 535.05 131.867 537.05 136C539.05 140 541.85 143.2 545.45 145.6C549.183 147.867 553.383 149 558.05 149ZM683.167 174L682.367 153.8V123.4C682.367 117.4 681.701 112.267 680.367 108C679.167 103.733 677.167 100.467 674.367 98.2C671.701 95.8 668.034 94.6 663.367 94.6C659.101 94.6 655.234 95.5333 651.767 97.4C648.301 99.2667 645.367 102.133 642.967 106L619.767 98C621.634 93.7333 624.367 89.6 627.967 85.6C631.567 81.4667 636.234 78.1333 641.967 75.6C647.834 72.9333 654.967 71.6 663.367 71.6C673.501 71.6 681.901 73.5333 688.567 77.4C695.367 81.2667 700.367 86.7333 703.567 93.8C706.901 100.733 708.501 109 708.367 118.6L707.767 174H683.167ZM655.167 176.4C643.167 176.4 633.834 173.733 627.167 168.4C620.634 163.067 617.367 155.533 617.367 145.8C617.367 135.133 620.901 127.133 627.967 121.8C635.167 116.333 645.234 113.6 658.167 113.6H683.567V133.2H667.367C658.701 133.2 652.701 134.267 649.367 136.4C646.034 138.4 644.367 141.267 644.367 145C644.367 147.933 645.701 150.267 648.367 152C651.034 153.6 654.767 154.4 659.567 154.4C663.967 154.4 667.834 153.4 671.167 151.4C674.634 149.267 677.367 146.6 679.367 143.4C681.367 140.067 682.367 136.667 682.367 133.2H688.767C688.767 146.8 686.167 157.4 680.967 165C675.901 172.6 667.301 176.4 655.167 176.4ZM762.608 176.4C751.541 176.4 743.141 173.667 737.408 168.2C731.808 162.733 729.008 154.933 729.008 144.8V42.8H755.408V139C755.408 143.267 756.341 146.533 758.208 148.8C760.074 150.933 762.808 152 766.408 152C767.741 152 769.208 151.733 770.808 151.2C772.408 150.533 774.074 149.6 775.808 148.4L785.008 168.2C781.808 170.6 778.208 172.533 774.208 174C770.341 175.6 766.474 176.4 762.608 176.4ZM712.808 96.4V74H780.408V96.4H712.808ZM837.319 176.4C827.452 176.4 818.719 174.2 811.119 169.8C803.519 165.267 797.519 159.067 793.119 151.2C788.852 143.333 786.719 134.267 786.719 124C786.719 113.733 788.919 104.667 793.319 96.8C797.852 88.9333 803.985 82.8 811.719 78.4C819.585 73.8667 828.585 71.6 838.719 71.6C847.519 71.6 855.585 73.9333 862.919 78.6C870.385 83.1333 876.319 89.8667 880.719 98.8C885.252 107.6 887.519 118.333 887.519 131H811.719L814.119 128.6C814.119 133.533 815.319 137.867 817.719 141.6C820.252 145.2 823.452 148 827.319 150C831.319 151.867 835.585 152.8 840.119 152.8C845.585 152.8 850.052 151.667 853.519 149.4C856.985 147 859.652 143.933 861.519 140.2L885.119 149.4C882.319 155 878.652 159.867 874.119 164C869.719 168 864.452 171.067 858.319 173.2C852.185 175.333 845.185 176.4 837.319 176.4ZM815.519 113.8L813.119 111.4H861.319L859.119 113.8C859.119 109 857.985 105.2 855.719 102.4C853.452 99.4667 850.652 97.3333 847.319 96C844.119 94.6667 840.985 94 837.919 94C834.852 94 831.585 94.6667 828.119 96C824.652 97.3333 821.652 99.4667 819.119 102.4C816.719 105.2 815.519 109 815.519 113.8Z" fill="white"/>
<path d="M81.6286 76.8617C91.7748 71.0042 108.225 71.0042 118.371 76.8617L181.628 113.38C191.774 119.237 191.774 128.734 181.628 134.591L118.371 171.109C108.225 176.966 91.7748 176.966 81.6286 171.109L18.3723 134.591C8.22602 128.734 8.22602 119.237 18.3723 113.38L81.6286 76.8617Z" fill="url(#paint0_linear_3_91)"/>
<g filter="url(#filter0_d_3_91)">
<path d="M81.6286 36.8575C91.7748 31.0001 108.225 31.0001 118.371 36.8575L181.628 73.3754C191.774 79.2328 191.774 88.7296 181.628 94.5871L118.371 131.105C108.225 136.962 91.7749 136.962 81.6287 131.105L18.3723 94.587C8.22603 88.7296 8.22603 79.2328 18.3723 73.3754L81.6286 36.8575Z" fill="url(#paint1_linear_3_91)"/>
</g>
<defs>
<filter id="filter0_d_3_91" x="3.45999" y="28.4074" width="193.08" height="117.639" filterUnits="userSpaceOnUse" color-interpolation-filters="sRGB">
<feFlood flood-opacity="0" result="BackgroundImageFix"/>
<feColorMatrix in="SourceAlpha" type="matrix" values="0 0 0 0 0 0 0 0 0 0 0 0 0 0 0 0 0 0 127 0" result="hardAlpha"/>
<feOffset dy="3.24559"/>
<feGaussianBlur stdDeviation="3.65129"/>
<feComposite in2="hardAlpha" operator="out"/>
<feColorMatrix type="matrix" values="0 0 0 0 0 0 0 0 0 0 0 0 0 0 0 0 0 0 0.18 0"/>
<feBlend mode="normal" in2="BackgroundImageFix" result="effect1_dropShadow_3_91"/>
<feBlend mode="normal" in="SourceGraphic" in2="effect1_dropShadow_3_91" result="shape"/>
</filter>
<linearGradient id="paint0_linear_3_91" x1="100" y1="124.284" x2="122.464" y2="164.555" gradientUnits="userSpaceOnUse">
<stop stop-color="white"/>
<stop offset="1" stop-color="#CACACA"/>
</linearGradient>
<linearGradient id="paint1_linear_3_91" x1="150" y1="55.1165" x2="154.688" y2="177.585" gradientUnits="userSpaceOnUse">
<stop stop-color="white"/>
<stop offset="1" stop-color="#BBBBBB"/>
</linearGradient>
</defs>
</svg>
